<mxfile host="app.diagrams.net" modified="2022-01-06T12:45:38.789Z" agent="5.0 (Windows NT 10.0; Win64; x64) AppleWebKit/537.36 (KHTML, like Gecko) Chrome/96.0.4664.110 Safari/537.36" etag="SMWbdcr0QjWaKWIEVCnc" version="16.2.2" type="github">
  <diagram id="xnhDnKTBgzdd4IQSt98Q" name="Page-1">
    <mxGraphModel dx="1038" dy="539" grid="1" gridSize="10" guides="1" tooltips="1" connect="1" arrows="1" fold="1" page="1" pageScale="1" pageWidth="850" pageHeight="1100" math="0" shadow="0">
      <root>
        <mxCell id="0" />
        <mxCell id="1" parent="0" />
        <mxCell id="xGHaVsoYM_xHRqqt-QXn-1" value="&lt;font style=&quot;font-size: 24px&quot;&gt;Web browser Interface&lt;/font&gt;" style="rounded=0;whiteSpace=wrap;html=1;" vertex="1" parent="1">
          <mxGeometry x="230" y="50" width="450" height="60" as="geometry" />
        </mxCell>
        <mxCell id="xGHaVsoYM_xHRqqt-QXn-2" value="Member Login" style="rounded=0;whiteSpace=wrap;html=1;" vertex="1" parent="1">
          <mxGeometry x="230" y="130" width="70" height="60" as="geometry" />
        </mxCell>
        <mxCell id="xGHaVsoYM_xHRqqt-QXn-3" value="Books Query Manger" style="rounded=0;whiteSpace=wrap;html=1;" vertex="1" parent="1">
          <mxGeometry x="330" y="130" width="80" height="60" as="geometry" />
        </mxCell>
        <mxCell id="xGHaVsoYM_xHRqqt-QXn-4" value="Shopping Cart Manager" style="rounded=0;whiteSpace=wrap;html=1;" vertex="1" parent="1">
          <mxGeometry x="440" y="130" width="110" height="60" as="geometry" />
        </mxCell>
        <mxCell id="xGHaVsoYM_xHRqqt-QXn-5" value="Order Manger" style="rounded=0;whiteSpace=wrap;html=1;" vertex="1" parent="1">
          <mxGeometry x="580" y="130" width="100" height="60" as="geometry" />
        </mxCell>
        <mxCell id="xGHaVsoYM_xHRqqt-QXn-6" value="Order tracking" style="rounded=0;whiteSpace=wrap;html=1;" vertex="1" parent="1">
          <mxGeometry x="230" y="220" width="70" height="60" as="geometry" />
        </mxCell>
        <mxCell id="xGHaVsoYM_xHRqqt-QXn-7" value="Logistics Manager" style="rounded=0;whiteSpace=wrap;html=1;" vertex="1" parent="1">
          <mxGeometry x="330" y="220" width="80" height="60" as="geometry" />
        </mxCell>
        <mxCell id="xGHaVsoYM_xHRqqt-QXn-8" value="Stock Query Manager" style="rounded=0;whiteSpace=wrap;html=1;" vertex="1" parent="1">
          <mxGeometry x="440" y="220" width="110" height="60" as="geometry" />
        </mxCell>
        <mxCell id="xGHaVsoYM_xHRqqt-QXn-9" value="Bill Manager" style="rounded=0;whiteSpace=wrap;html=1;" vertex="1" parent="1">
          <mxGeometry x="580" y="220" width="100" height="60" as="geometry" />
        </mxCell>
        <mxCell id="xGHaVsoYM_xHRqqt-QXn-10" value="&lt;font style=&quot;font-size: 18px&quot;&gt;Database connection pool&lt;/font&gt;" style="rounded=0;whiteSpace=wrap;html=1;" vertex="1" parent="1">
          <mxGeometry x="230" y="300" width="450" height="40" as="geometry" />
        </mxCell>
        <mxCell id="xGHaVsoYM_xHRqqt-QXn-11" value="&lt;font style=&quot;font-size: 18px&quot;&gt;DB1&lt;/font&gt;" style="rounded=0;whiteSpace=wrap;html=1;" vertex="1" parent="1">
          <mxGeometry x="230" y="350" width="140" height="60" as="geometry" />
        </mxCell>
        <mxCell id="xGHaVsoYM_xHRqqt-QXn-12" value="&lt;font style=&quot;font-size: 18px&quot;&gt;DB2&lt;/font&gt;" style="rounded=0;whiteSpace=wrap;html=1;" vertex="1" parent="1">
          <mxGeometry x="390" y="350" width="140" height="60" as="geometry" />
        </mxCell>
        <mxCell id="xGHaVsoYM_xHRqqt-QXn-13" value="&lt;font style=&quot;font-size: 18px&quot;&gt;DB3&lt;/font&gt;" style="rounded=0;whiteSpace=wrap;html=1;" vertex="1" parent="1">
          <mxGeometry x="540" y="350" width="140" height="60" as="geometry" />
        </mxCell>
      </root>
    </mxGraphModel>
  </diagram>
</mxfile>
